<svg width="24" height="24" viewBox="0 0 24 24" fill="none" xmlns="http://www.w3.org/2000/svg">
<path d="M7.5 8.25464H16.5M7.5 11.2546H12M2.25 12.764C2.25 14.3651 3.37341 15.7587 4.95746 15.9916C6.08596 16.1575 7.22724 16.2842 8.37985 16.3701C8.73004 16.3963 9.05017 16.5799 9.24496 16.8721L12 21.0046L14.755 16.8721C14.9498 16.5799 15.2699 16.3963 15.6201 16.3702C16.7727 16.2843 17.914 16.1576 19.0425 15.9917C20.6266 15.7588 21.75 14.3652 21.75 12.7641V6.7452C21.75 5.1441 20.6266 3.75047 19.0425 3.51757C16.744 3.17965 14.3926 3.00464 12.0003 3.00464C9.60776 3.00464 7.25612 3.17968 4.95747 3.51766C3.37342 3.75057 2.25 5.1442 2.25 6.74528V12.764Z" stroke="#ffffff" strokeWidth="1.5" strokeLinecap="round" strokeLinejoin="round"/>
</svg>
