<svg id="Layer_1" data-name="Layer 1" xmlns="http://www.w3.org/2000/svg" viewBox="0 0 192 192"><defs><style>.cls-1{fill:#fff;}</style></defs><rect class="cls-1" width="192" height="192"/><rect class="cls-1" width="192" height="192"/><polygon points="38.3 99.4 85.82 99.4 85.82 106.18 38.3 106.18 38.3 112.97 92.6 112.97 92.6 92.6 45.09 92.6 45.09 85.82 146.91 85.82 146.91 92.6 99.4 92.6 99.4 112.97 153.69 112.97 153.69 106.18 106.18 106.18 106.18 99.4 153.69 99.4 153.69 79.03 38.3 79.03 38.3 99.4"/><path d="M38.3,140.12H146.91v6.79H38.3v6.79H153.7V119.76H38.3Zm6.79-13.57H146.91v6.78H45.09Z"/><path d="M153.7,45.09V38.3H38.3V72.24H153.7V51.88H45.09V45.09Zm-6.79,13.58v6.78H45.09V58.67Z"/></svg>