<?xml version="1.0" encoding="utf-8"?><svg version="1.1" id="Layer_1" xmlns="http://www.w3.org/2000/svg" xmlns:xlink="http://www.w3.org/1999/xlink" x="0px" y="0px" viewBox="0 0 106.41 122.88" style="enable-background:new 0 0 106.41 122.88" xml:space="preserve"><g><path d="M8.31,108.22c4.77-0.44,18.07-1.58,22.24-8.01c0.42-0.65,3.9-6.42,3.9-6.45l14.36,5.47c0.31,1.57-8.11,13.33-9.64,14.6 c-1.95,1.62-3.82,2.51-5.8,3.26c-6.65,2.5-12.37,4.52-19.91,5.79L8.31,108.22L8.31,108.22z M38.01,49.45l-6.14,22.24 c-1.46,7.19,0.12,13.28,6.89,17.48c3.53,2.19,4.52,2.08,8.56,3.25l18.65,4.28c1.11,0.25,23.27,18.19,25.35,19.98l9.57-8.62 c1.39-1.25-22.08-21.96-26.17-23.99c-19.42-9.63-20.24,1.38-12.93-26.41c3.71,3.62,6.52,7.66,13.56,10.42 c8.57,2.19,13.35-0.83,20.48-3.14l10.59-3.81l-4.57-12.91l-10.59,3.81c-0.3,0.1-1.06,0.38-2.39,0.84c-3.3,0.8-6.22,2.9-8.31,1.89 c-6.93-3.35-11.04-17.49-30.39-19.03c-2.91-0.23-8.32-0.96-12.54-1.08C21.94,33.74,16.59,39.62,8,48.44 c-3.95,3.82-4.01,3.78-8,7.57l10.15,10.1c4.02-3.82,4.11-3.8,8.09-7.66c3.61-3.45,6.08-7.01,9.79-8.53 c2.41-0.99,5.52-0.58,9.22-0.51C37.51,49.43,37.76,49.44,38.01,49.45L38.01,49.45L38.01,49.45z M56.12,0.73 c7.8-2.53,16.18,1.74,18.72,9.55c2.53,7.8-1.74,16.18-9.55,18.72c-7.8,2.53-16.18-1.74-18.72-9.55 C44.04,11.64,48.32,3.26,56.12,0.73L56.12,0.73z"/></g></svg>