<svg width="140" height="85" viewBox="0 0 140 85" fill="none" xmlns="http://www.w3.org/2000/svg">
<path d="M99.1948 22.3253L107.395 31.9596C108.333 33.0417 109.166 33.9319 109.502 34.438C111.954 36.8751 113.329 40.1689 113.327 43.6011C113.097 47.6503 110.458 50.408 108.014 53.3576L102.276 60.0947L99.2833 63.5854C99.1759 63.7058 99.1067 63.8545 99.0842 64.0132C99.0616 64.172 99.0867 64.3337 99.1564 64.4785C99.2262 64.6234 99.3374 64.7449 99.4764 64.8281C99.6154 64.9113 99.7761 64.9526 99.9386 64.9468H129.851C134.42 64.9468 140.176 68.7865 139.84 74.616C139.83 77.2656 138.758 79.804 136.857 81.6775C134.956 83.5511 132.38 84.6077 129.692 84.6169H82.8483C79.7667 84.6169 71.4783 84.9485 69.1583 77.8798C68.6649 76.4027 68.5974 74.8196 68.9635 73.307C69.6378 71.0702 70.7048 68.9673 72.1159 67.0935C74.4714 63.6028 77.0216 60.1121 79.5365 56.7262C82.7774 52.293 86.1069 47.9994 89.3833 43.4789C89.4997 43.3318 89.5628 43.1506 89.5628 42.9641C89.5628 42.7775 89.4997 42.5963 89.3833 42.4492L77.4821 28.4864C77.4045 28.3851 77.3041 28.303 77.1889 28.2465C77.0736 28.19 76.9467 28.1605 76.8179 28.1605C76.6892 28.1605 76.5623 28.19 76.447 28.2465C76.3318 28.303 76.2314 28.3851 76.1538 28.4864C72.966 32.7276 59.0104 51.5075 56.035 55.3124C53.0597 59.1173 45.7277 59.3267 41.6721 55.3124L23.0587 36.8989C22.9398 36.7814 22.7881 36.7013 22.6229 36.6688C22.4578 36.6363 22.2865 36.6528 22.1309 36.7164C21.9753 36.78 21.8424 36.8877 21.749 37.0259C21.6557 37.164 21.606 37.3264 21.6064 37.4924V72.9056C21.6502 75.4186 20.8951 77.8821 19.4469 79.951C17.9987 82.0199 15.9299 83.5903 13.5306 84.4423C11.9974 84.9682 10.359 85.1252 8.75175 84.9003C7.14453 84.6754 5.61516 84.0751 4.29115 83.1494C2.96715 82.2237 1.88689 80.9996 1.14043 79.5789C0.393977 78.1583 0.00296523 76.5823 0 74.9825V11.3121C0.106705 9.01757 0.944464 6.81455 2.39423 5.01607C3.844 3.21758 5.83204 1.91513 8.07585 1.29377C10.0005 0.788431 12.0266 0.793487 13.9487 1.30842C15.8707 1.82335 17.6205 2.82987 19.0207 4.22596L47.6404 32.4658C47.726 32.5515 47.8298 32.6177 47.9443 32.6596C48.0588 32.7014 48.1812 32.7179 48.3029 32.7079C48.4246 32.6979 48.5425 32.6617 48.6484 32.6017C48.7543 32.5418 48.8455 32.4596 48.9155 32.361L69.2468 4.62739C70.1864 3.50151 71.3643 2.59166 72.6981 1.96155C74.032 1.33143 75.4894 0.996298 76.9685 0.979606H129.851C131.298 0.981958 132.728 1.28882 134.046 1.87967C135.363 2.47052 136.537 3.33174 137.489 4.40573C138.441 5.47972 139.15 6.74172 139.568 8.10733C139.985 9.47294 140.102 10.9107 139.91 12.3244C139.538 14.7768 138.275 17.0127 136.357 18.6175C134.439 20.2223 131.995 21.087 129.479 21.0512H99.8678C99.719 21.0547 99.5739 21.0975 99.4476 21.1752C99.3213 21.2528 99.2184 21.3623 99.1497 21.4925C99.081 21.6226 99.0489 21.7685 99.0568 21.9149C99.0648 22.0614 99.1124 22.2031 99.1948 22.3253Z" fill="#E42575"/>
</svg>
