<?xml version="1.0" standalone="no"?>
<!DOCTYPE svg PUBLIC "-//W3C//DTD SVG 1.1//EN" "http://www.w3.org/Graphics/SVG/1.1/DTD/svg11.dtd" >
<svg xmlns="http://www.w3.org/2000/svg" xmlns:xlink="http://www.w3.org/1999/xlink" version="1.1">
<metadata>
Created by FontForge 20200511 at Mon May 10 03:53:47 2021
 By convertio
Copyright Darrell Flood 2021
</metadata>
<defs>
<font id="SquareOne" horiz-adv-x="700" >
  <font-face 
    font-family="Square One"
    font-weight="400"
    font-stretch="normal"
    units-per-em="1024"
    panose-1="0 0 4 0 0 0 0 0 0 0"
    ascent="866"
    descent="-158"
    x-height="600"
    cap-height="600"
    bbox="0 -150 700 800"
    underline-thickness="51"
    underline-position="77"
    unicode-range="U+0020-2122"
  />
<missing-glyph horiz-adv-x="320" 
 />
    <glyph glyph-name=".notdef" horiz-adv-x="320" 
 />
    <glyph glyph-name=".null" horiz-adv-x="0" 
 />
    <glyph glyph-name="nonmarkingreturn" horiz-adv-x="64" 
 />
    <glyph glyph-name="space" unicode=" " horiz-adv-x="400" 
 />
    <glyph glyph-name="exclam" unicode="!" horiz-adv-x="200" 
d="M100 600v-350h-100v350h100zM100 100v-100h-100v100h100z" />
    <glyph glyph-name="quotedbl" unicode="&#x22;" horiz-adv-x="350" 
d="M100 500h-100v100h100v-100zM250 500h-100v100h100v-100z" />
    <glyph glyph-name="numbersign" unicode="#" 
d="M500 350v-100h100v-100h-100v-150h-100v150h-200v-150h-100v150h-100v100h100v100h-100v100h100v150h100v-150h200v150h100v-150h100v-100h-100zM400 250v100h-200v-100h200z" />
    <glyph glyph-name="dollar" unicode="$" 
d="M250 600v100h100v-100h250v-100h-500v-150h500v-350h-250v-100h-100v100h-250v100h500v150h-500v350h250z" />
    <glyph glyph-name="percent" unicode="%" 
d="M600 600l-475 -600h-125l475 600h125zM100 500h-100v100h100v-100zM600 0h-100v100h100v-100z" />
    <glyph glyph-name="ampersand" unicode="&#x26;" horiz-adv-x="800" 
d="M500 350v150h-400v-150h400zM100 100h400v150h-400v-150zM600 350h100v-100h-100v-350h-100v100h-500v600h600v-250z" />
    <glyph glyph-name="quotesingle" unicode="'" horiz-adv-x="200" 
d="M100 500h-100v100h100v-100z" />
    <glyph glyph-name="parenleft" unicode="(" horiz-adv-x="500" 
d="M400 700v-100h-300v-600h300v-100h-400v800h400z" />
    <glyph glyph-name="parenright" unicode=")" horiz-adv-x="500" 
d="M0 700h400v-800h-400v100h300v600h-300v100z" />
    <glyph glyph-name="asterisk" unicode="*" horiz-adv-x="450" 
d="M200 365v-115h-50v115l-81 -81l-35 35l81 81h-115v50h115l-81 81l35 35l81 -81v115h50v-115l81 81l35 -35l-81 -81h115v-50h-115l81 -81l-35 -35z" />
    <glyph glyph-name="plus" unicode="+" 
d="M350 250v-250h-100v250h-250v100h250v250h100v-250h250v-100h-250z" />
    <glyph glyph-name="comma" unicode="," horiz-adv-x="200" 
d="M100 -100h-100v200h100v-200z" />
    <glyph glyph-name="hyphen" unicode="-" 
d="M600 250h-600v100h600v-100z" />
    <glyph glyph-name="period" unicode="." horiz-adv-x="200" 
d="M100 0h-100v100h100v-100z" />
    <glyph glyph-name="slash" unicode="/" 
d="M600 600l-475 -600h-125l475 600h125z" />
    <glyph glyph-name="zero" unicode="0" horiz-adv-x="716" 
d="M104 524v-408h408v408h-408zM616 628v-616h-616v616h616z" />
    <glyph glyph-name="one" unicode="1" horiz-adv-x="200" 
d="M100 600v-600h-100v600h100z" />
    <glyph glyph-name="two" unicode="2" 
d="M600 0h-600v350h500v150h-500v100h600v-350h-500v-150h500v-100z" />
    <glyph glyph-name="three" unicode="3" 
d="M0 0v100h500v150h-500v100h500v150h-500v100h600v-600h-600z" />
    <glyph glyph-name="four" unicode="4" 
d="M600 0h-100v250h-500v350h100v-250h400v250h100v-600z" />
    <glyph glyph-name="five" unicode="5" 
d="M600 600v-100h-500v-150h500v-350h-600v100h500v150h-500v350h600z" />
    <glyph glyph-name="six" unicode="6" 
d="M100 250v-150h400v150h-400zM0 600h600v-100h-500v-150h500v-350h-600v600z" />
    <glyph glyph-name="seven" unicode="7" 
d="M500 500h-500v100h600v-600h-100v500z" />
    <glyph glyph-name="eight" unicode="8" 
d="M500 350v150h-400v-150h400zM0 600h600v-600h-600v600zM100 100h400v150h-400v-150z" />
    <glyph glyph-name="nine" unicode="9" 
d="M500 350v150h-400v-150h400zM600 0h-600v100h500v150h-500v350h600v-600z" />
    <glyph glyph-name="colon" unicode=":" horiz-adv-x="200" 
d="M100 0h-100v100h100v-100zM100 250h-100v100h100v-100z" />
    <glyph glyph-name="semicolon" unicode=";" horiz-adv-x="200" 
d="M100 -100h-100v200h100v-200zM100 250h-100v100h100v-100z" />
    <glyph glyph-name="less" unicode="&#x3c;" horiz-adv-x="475" 
d="M0 300l250 300h125l-237 -300l237 -300h-125z" />
    <glyph glyph-name="equal" unicode="=" 
d="M600 350h-600v100h600v-100zM600 150h-600v100h600v-100z" />
    <glyph glyph-name="greater" unicode="&#x3e;" horiz-adv-x="475" 
d="M375 300l-250 -300h-125l237 300l-237 300h125z" />
    <glyph glyph-name="question" unicode="?" 
d="M500 500h-500v100h600v-350h-250v-50h-100v150h250v150zM350 0h-100v100h100v-100z" />
    <glyph glyph-name="at" unicode="@" 
d="M100 100h500v-100h-600v600h600v-350h-400v100h300v150h-400v-400z" />
    <glyph glyph-name="A" unicode="A" 
d="M600 0h-100v250h-400v-250h-100v600h600v-600zM500 350v150h-400v-150h400z" />
    <glyph glyph-name="B" unicode="B" 
d="M500 350v150h-400v-150h400zM0 600h600v-600h-600v600zM100 100h400v150h-400v-150z" />
    <glyph glyph-name="C" unicode="C" 
d="M600 600v-100h-500v-400h500v-100h-600v600h600z" />
    <glyph glyph-name="D" unicode="D" 
d="M200 600h400v-600h-600v600h100v-500h400v400h-300v100z" />
    <glyph glyph-name="E" unicode="E" 
d="M600 0h-600v600h600v-100h-500v-150h500v-100h-500v-150h500v-100z" />
    <glyph glyph-name="F" unicode="F" 
d="M600 600v-100h-500v-150h500v-100h-500v-250h-100v600h600z" />
    <glyph glyph-name="G" unicode="G" 
d="M600 600v-100h-500v-400h400v150h-300v100h400v-350h-600v600h600z" />
    <glyph glyph-name="H" unicode="H" 
d="M600 0h-100v250h-400v-250h-100v600h100v-250h400v250h100v-600z" />
    <glyph glyph-name="I" unicode="I" horiz-adv-x="200" 
d="M100 0h-100v600h100v-600z" />
    <glyph glyph-name="J" unicode="J" 
d="M500 100v500h100v-600h-600v350h100v-250h400z" />
    <glyph glyph-name="K" unicode="K" horiz-adv-x="675" 
d="M100 600v-600h-100v600h100zM200 300l250 300h125l-237 -300l237 -300h-125z" />
    <glyph glyph-name="L" unicode="L" 
d="M600 100v-100h-600v600h100v-500h500z" />
    <glyph glyph-name="M" unicode="M" 
d="M600 0h-100v500h-150v-500h-100v500h-150v-500h-100v600h600v-600z" />
    <glyph glyph-name="N" unicode="N" 
d="M100 474v-474h-100v600h125l375 -474v474h100v-600h-125z" />
    <glyph glyph-name="O" unicode="O" 
d="M0 600h600v-600h-600v600zM100 500v-400h400v400h-400z" />
    <glyph glyph-name="P" unicode="P" 
d="M100 500v-500h-100v600h600v-350h-400v100h300v150h-400z" />
    <glyph glyph-name="Q" unicode="Q" 
d="M100 500v-400h400v400h-400zM392 0h-392v600h600v-600h-79l79 -100h-125z" />
    <glyph glyph-name="R" unicode="R" 
d="M575 0h-125l-208 250h-42v100h300v150h-400v-500h-100v600h600v-350h-222z" />
    <glyph glyph-name="S" unicode="S" 
d="M600 600v-100h-500v-150h500v-350h-600v100h500v150h-500v350h600z" />
    <glyph glyph-name="T" unicode="T" 
d="M350 500v-500h-100v500h-250v100h600v-100h-250z" />
    <glyph glyph-name="U" unicode="U" 
d="M500 100v500h100v-600h-600v600h100v-500h400z" />
    <glyph glyph-name="V" unicode="V" 
d="M125 0h-125v600h100v-474l375 474h125z" />
    <glyph glyph-name="W" unicode="W" 
d="M500 100v500h100v-600h-600v600h100v-500h150v500h100v-500h150z" />
    <glyph glyph-name="X" unicode="X" 
d="M238 300l-238 300h125l175 -221l175 221h125l-237 -300l237 -300h-125l-175 221l-175 -221h-125z" />
    <glyph glyph-name="Y" unicode="Y" 
d="M250 250h-250v350h100v-250h400v250h100v-350h-250v-250h-100v250z" />
    <glyph glyph-name="Z" unicode="Z" 
d="M0 600h600v-350h-500v-150h500v-100h-600v350h500v150h-500v100z" />
    <glyph glyph-name="bracketleft" unicode="[" horiz-adv-x="400" 
d="M0 700h300v-100h-200v-600h200v-100h-300v800z" />
    <glyph glyph-name="backslash" unicode="\" 
d="M0 600h125l475 -600h-125z" />
    <glyph glyph-name="bracketright" unicode="]" horiz-adv-x="400" 
d="M300 700v-800h-300v100h200v600h-200v100h300z" />
    <glyph glyph-name="asciicircum" unicode="^" horiz-adv-x="400" 
d="M200 800l100 -100h-100l-50 50l-50 -50h-100l100 100h100z" />
    <glyph glyph-name="underscore" unicode="_" 
d="M600 -150h-600v100h600v-100z" />
    <glyph glyph-name="grave" unicode="`" horiz-adv-x="300" 
d="M200 700h-100l-100 100h100z" />
    <glyph glyph-name="a" unicode="a" 
d="M400 600v-100h-300v-400h400v500h100v-600h-600v600h400z" />
    <glyph glyph-name="b" unicode="b" 
d="M0 600h100v-500h400v150h-300v100h400v-350h-600v600z" />
    <glyph glyph-name="c" unicode="c" 
d="M600 600v-100h-500v-400h500v-100h-600v600h600z" />
    <glyph glyph-name="d" unicode="d" 
d="M500 100v500h100v-600h-600v350h400v-100h-300v-150h400z" />
    <glyph glyph-name="e" unicode="e" 
d="M100 100h500v-100h-600v600h600v-350h-400v100h300v150h-400v-400z" />
    <glyph glyph-name="f" unicode="f" 
d="M600 600v-100h-500v-150h500v-100h-500v-250h-100v600h600z" />
    <glyph glyph-name="g" unicode="g" 
d="M0 0v100h500v400h-400v-150h300v-100h-400v350h600v-600h-600z" />
    <glyph glyph-name="h" unicode="h" 
d="M0 600h100v-250h500v-350h-100v250h-400v-250h-100v600z" />
    <glyph glyph-name="i" unicode="i" horiz-adv-x="200" 
d="M100 0h-100v350h100v-350zM100 500h-100v100h100v-100z" />
    <glyph glyph-name="j" unicode="j" 
d="M500 100v500h100v-600h-600v350h100v-250h400z" />
    <glyph glyph-name="k" unicode="k" horiz-adv-x="675" 
d="M100 600v-600h-100v600h100zM200 300l250 300h125l-237 -300l237 -300h-125z" />
    <glyph glyph-name="l" unicode="l" horiz-adv-x="200" 
d="M100 600v-600h-100v600h100z" />
    <glyph glyph-name="m" unicode="m" 
d="M600 0h-100v500h-150v-500h-100v500h-150v-500h-100v600h600v-600z" />
    <glyph glyph-name="n" unicode="n" 
d="M600 0h-100v500h-400v-500h-100v600h600v-600z" />
    <glyph glyph-name="o" unicode="o" 
d="M0 600h600v-600h-600v600zM100 500v-400h400v400h-400z" />
    <glyph glyph-name="p" unicode="p" 
d="M100 500v-500h-100v600h600v-350h-400v100h300v150h-400z" />
    <glyph glyph-name="q" unicode="q" 
d="M600 0h-100v500h-400v-150h300v-100h-400v350h600v-600z" />
    <glyph glyph-name="r" unicode="r" 
d="M100 500v-500h-100v600h600v-100h-500z" />
    <glyph glyph-name="s" unicode="s" 
d="M600 600v-100h-500v-150h500v-350h-600v100h500v150h-500v350h600z" />
    <glyph glyph-name="t" unicode="t" 
d="M350 250v-250h-100v250h-250v100h250v250h100v-250h250v-100h-250z" />
    <glyph glyph-name="u" unicode="u" 
d="M500 100v500h100v-600h-600v600h100v-500h400z" />
    <glyph glyph-name="v" unicode="v" 
d="M125 0h-125v600h100v-474l375 474h125z" />
    <glyph glyph-name="w" unicode="w" 
d="M500 100v500h100v-600h-600v600h100v-500h150v500h100v-500h150z" />
    <glyph glyph-name="x" unicode="x" 
d="M238 300l-238 300h125l175 -221l175 221h125l-237 -300l237 -300h-125l-175 221l-175 -221h-125z" />
    <glyph glyph-name="y" unicode="y" 
d="M0 0v100h500v150h-500v350h100v-250h400v250h100v-600h-600z" />
    <glyph glyph-name="z" unicode="z" 
d="M0 600h600v-350h-500v-150h500v-100h-600v350h500v150h-500v100z" />
    <glyph glyph-name="braceleft" unicode="{" 
d="M0 600h600v-600h-600v600z" />
    <glyph glyph-name="bar" unicode="|" horiz-adv-x="200" 
d="M0 700h100v-800h-100v800z" />
    <glyph glyph-name="braceright" unicode="}" 
d="M0 600h600v-600h-600v600z" />
    <glyph glyph-name="asciitilde" unicode="~" 
d="M600 250h-600v100h600v-100z" />
    <glyph glyph-name="cent" unicode="&#xa2;" 
d="M250 600v100h100v-100h250v-100h-500v-400h500v-100h-250v-100h-100v100h-250v600h250z" />
    <glyph glyph-name="sterling" unicode="&#xa3;" horiz-adv-x="800" 
d="M100 250h-100v100h100v250h600v-200h-100v100h-400v-150h400v-100h-400v-150h500v-100h-600v250z" />
    <glyph glyph-name="yen" unicode="&#xa5;" 
d="M250 200v50h-250v350h100v-250h400v250h100v-350h-250v-50h250v-100h-250v-100h-100v100h-250v100h250z" />
    <glyph glyph-name="copyright" unicode="&#xa9;" 
d="M600 600v-100h-500v-400h500v-100h-600v600h600z" />
    <glyph glyph-name="registered" unicode="&#xae;" 
d="M242 250h-42v100h300v150h-400v-500h-100v600h600v-350h-222l197 -250h-125z" />
    <glyph glyph-name="divide" unicode="&#xf7;" horiz-adv-x="716" 
d="M0 372h616v-104h-616v104zM256 12v104h104v-104h-104zM256 524v104h104v-104h-104z" />
    <glyph glyph-name="quoteleft" unicode="&#x2018;" horiz-adv-x="200" 
d="M100 500h-100v100h100v-100z" />
    <glyph glyph-name="quoteright" unicode="&#x2019;" horiz-adv-x="200" 
d="M100 500h-100v100h100v-100z" />
    <glyph glyph-name="quotedblleft" unicode="&#x201c;" horiz-adv-x="350" 
d="M100 500h-100v100h100v-100zM250 500h-100v100h100v-100z" />
    <glyph glyph-name="quotedblright" unicode="&#x201d;" horiz-adv-x="350" 
d="M100 500h-100v100h100v-100zM250 500h-100v100h100v-100z" />
    <glyph glyph-name="Euro" unicode="&#x20ac;" horiz-adv-x="800" 
d="M200 100h500v-100h-600v250h-100v100h100v250h600v-100h-500v-150h500v-100h-500v-150z" />
    <glyph glyph-name="trademark" unicode="&#x2122;" 
d="M350 250v-250h-100v250h-250v100h250v250h100v-250h250v-100h-250z" />
    <glyph glyph-name="_1" horiz-adv-x="320" 
 />
  </font>
</defs>
</svg>
